<svg width="1057" height="262" viewBox="0 0 1057 262" fill="none" xmlns="http://www.w3.org/2000/svg">
<path d="M1007.18 82.364V48.8185H1024.18C1025.55 48.8185 1027.03 49.2125 1028.64 50.0004C1030.24 50.7579 1031.61 51.9398 1032.73 53.5458C1033.88 55.1216 1034.46 57.1216 1034.46 59.5458C1034.46 62.0004 1033.87 64.0913 1032.68 65.8185C1031.5 67.5155 1030.06 68.8034 1028.37 69.6822C1026.7 70.561 1025.12 71.0004 1023.64 71.0004H1011.37V65.5458H1021.37C1022.37 65.5458 1023.44 65.0458 1024.59 64.0458C1025.77 63.0458 1026.37 61.5458 1026.37 59.5458C1026.37 57.4852 1025.77 56.0913 1024.59 55.364C1023.44 54.6367 1022.43 54.2731 1021.55 54.2731H1014.55V82.364H1007.18ZM1027.46 66.5458L1035.82 82.364H1027.73L1019.55 66.5458H1027.46ZM1019.91 102.364C1014.88 102.364 1010.17 101.425 1005.77 99.5458C1001.38 97.667 997.517 95.061 994.183 91.7276C990.85 88.3943 988.244 84.5307 986.365 80.1367C984.486 75.7428 983.547 71.0307 983.547 66.0004C983.547 60.9701 984.486 56.2579 986.365 51.864C988.244 47.4701 990.85 43.6064 994.183 40.2731C997.517 36.9398 1001.38 34.3337 1005.77 32.4549C1010.17 30.5761 1014.88 29.6367 1019.91 29.6367C1024.94 29.6367 1029.65 30.5761 1034.05 32.4549C1038.44 34.3337 1042.3 36.9398 1045.64 40.2731C1048.97 43.6064 1051.58 47.4701 1053.46 51.864C1055.33 56.2579 1056.27 60.9701 1056.27 66.0004C1056.27 71.0307 1055.33 75.7428 1053.46 80.1367C1051.58 84.5307 1048.97 88.3943 1045.64 91.7276C1042.3 95.061 1038.44 97.667 1034.05 99.5458C1029.65 101.425 1024.94 102.364 1019.91 102.364ZM1019.91 93.6367C1025 93.6367 1029.64 92.3943 1033.82 89.9094C1038 87.4246 1041.33 84.0913 1043.82 79.9094C1046.3 75.7276 1047.55 71.0913 1047.55 66.0004C1047.55 60.9094 1046.3 56.2731 1043.82 52.0913C1041.33 47.9094 1038 44.5761 1033.82 42.0913C1029.64 39.6064 1025 38.364 1019.91 38.364C1014.82 38.364 1010.18 39.6064 1006 42.0913C1001.82 44.5761 998.486 47.9094 996.001 52.0913C993.517 56.2731 992.274 60.9094 992.274 66.0004C992.274 71.0913 993.517 75.7276 996.001 79.9094C998.486 84.0913 1001.82 87.4246 1006 89.9094C1010.18 92.3943 1014.82 93.6367 1019.91 93.6367Z" fill="black"/>
<path d="M923.791 206.202C916.878 206.202 910.652 204.971 905.112 202.509C899.619 199.999 895.263 196.306 892.044 191.429C888.871 186.552 887.285 180.539 887.285 173.39C887.285 167.234 888.421 162.144 890.694 158.12C892.967 154.095 896.068 150.875 899.998 148.461C903.928 146.046 908.355 144.223 913.279 142.992C918.251 141.713 923.388 140.79 928.691 140.222C935.083 139.559 940.268 138.967 944.245 138.446C948.223 137.878 951.111 137.026 952.91 135.89C954.757 134.706 955.68 132.883 955.68 130.421V129.995C955.68 124.644 954.094 120.501 950.922 117.566C947.749 114.63 943.18 113.162 937.214 113.162C930.917 113.162 925.922 114.535 922.228 117.282C918.582 120.028 916.12 123.271 914.842 127.012L890.836 123.603C892.73 116.974 895.855 111.434 900.211 106.983C904.567 102.485 909.894 99.1235 916.191 96.8981C922.489 94.6254 929.449 93.489 937.072 93.489C942.328 93.489 947.56 94.1045 952.768 95.3356C957.976 96.5666 962.735 98.6026 967.044 101.444C971.352 104.237 974.809 108.049 977.413 112.878C980.064 117.708 981.39 123.745 981.39 130.989V204H956.674V189.015H955.822C954.26 192.045 952.058 194.886 949.217 197.537C946.423 200.141 942.896 202.248 938.635 203.858C934.421 205.421 929.473 206.202 923.791 206.202ZM930.467 187.31C935.628 187.31 940.102 186.292 943.89 184.256C947.678 182.173 950.59 179.426 952.626 176.017C954.709 172.608 955.751 168.891 955.751 164.867V152.012C954.946 152.675 953.573 153.29 951.632 153.858C949.738 154.426 947.607 154.924 945.24 155.35C942.872 155.776 940.529 156.155 938.208 156.486C935.888 156.818 933.876 157.102 932.172 157.338C928.336 157.859 924.903 158.712 921.873 159.895C918.843 161.079 916.452 162.736 914.7 164.867C912.948 166.95 912.072 169.649 912.072 172.963C912.072 177.698 913.8 181.273 917.257 183.688C920.713 186.103 925.117 187.31 930.467 187.31ZM928.833 80.5629L907.029 48.1055H932.242L948.081 80.5629H928.833Z" fill="black"/>
<path d="M747.531 203.999L716.707 94.9082H742.914L762.091 171.613H763.085L782.687 94.9082H808.61L828.213 171.187H829.278L848.17 94.9082H874.448L843.554 203.999H816.778L796.323 130.278H794.832L774.378 203.999H747.531Z" fill="black"/>
<path d="M655.342 206.13C644.405 206.13 634.959 203.858 627.004 199.312C619.097 194.719 613.013 188.233 608.751 179.852C604.49 171.424 602.359 161.504 602.359 150.093C602.359 138.872 604.49 129.023 608.751 120.548C613.06 112.025 619.073 105.396 626.791 100.662C634.509 95.8794 643.576 93.4883 653.993 93.4883C660.716 93.4883 667.061 94.5773 673.027 96.7553C679.04 98.886 684.343 102.2 688.936 106.699C693.576 111.197 697.222 116.926 699.874 123.886C702.525 130.799 703.851 139.038 703.851 148.602V156.485H614.433V139.156H679.206C679.159 134.232 678.093 129.852 676.01 126.017C673.927 122.134 671.015 119.08 667.274 116.855C663.581 114.629 659.272 113.517 654.348 113.517C649.092 113.517 644.476 114.795 640.499 117.352C636.521 119.861 633.42 123.176 631.195 127.295C629.017 131.367 627.904 135.841 627.857 140.718V155.846C627.857 162.191 629.017 167.636 631.337 172.181C633.657 176.68 636.9 180.136 641.067 182.551C645.233 184.918 650.11 186.102 655.697 186.102C659.438 186.102 662.823 185.581 665.854 184.539C668.884 183.45 671.512 181.864 673.737 179.781C675.963 177.698 677.643 175.117 678.78 172.039L702.785 174.738C701.27 181.083 698.382 186.623 694.121 191.358C689.907 196.045 684.509 199.691 677.928 202.295C671.346 204.852 663.818 206.13 655.342 206.13Z" fill="black"/>
<path d="M580.003 132.836V154.001H514.52V132.836H580.003Z" fill="black"/>
<path d="M430.431 206.202C423.519 206.202 417.292 204.971 411.752 202.509C406.26 199.999 401.904 196.306 398.684 191.429C395.512 186.552 393.926 180.539 393.926 173.39C393.926 167.234 395.062 162.144 397.335 158.12C399.608 154.095 402.709 150.875 406.639 148.461C410.569 146.046 414.996 144.223 419.92 142.992C424.892 141.713 430.029 140.79 435.332 140.222C441.724 139.559 446.909 138.967 450.886 138.446C454.863 137.878 457.752 137.026 459.551 135.89C461.397 134.706 462.321 132.883 462.321 130.421V129.995C462.321 124.644 460.734 120.501 457.562 117.566C454.39 114.63 449.821 113.162 443.855 113.162C437.557 113.162 432.562 114.535 428.869 117.282C425.223 120.028 422.761 123.271 421.483 127.012L397.477 123.603C399.371 116.974 402.496 111.434 406.852 106.983C411.208 102.485 416.535 99.1235 422.832 96.8981C429.129 94.6254 436.09 93.489 443.713 93.489C448.968 93.489 454.2 94.1045 459.409 95.3356C464.617 96.5666 469.376 98.6026 473.684 101.444C477.993 104.237 481.449 108.049 484.054 112.878C486.705 117.708 488.031 123.745 488.031 130.989V204H463.315V189.015H462.463C460.9 192.045 458.699 194.886 455.858 197.537C453.064 200.141 449.537 202.248 445.275 203.858C441.061 205.421 436.113 206.202 430.431 206.202ZM437.108 187.31C442.269 187.31 446.743 186.292 450.531 184.256C454.319 182.173 457.231 179.426 459.267 176.017C461.35 172.608 462.392 168.891 462.392 164.867V152.012C461.587 152.675 460.214 153.29 458.272 153.858C456.378 154.426 454.248 154.924 451.88 155.35C449.513 155.776 447.169 156.155 444.849 156.486C442.529 156.818 440.517 157.102 438.812 157.338C434.977 157.859 431.544 158.712 428.514 159.895C425.484 161.079 423.092 162.736 421.341 164.867C419.589 166.95 418.713 169.649 418.713 172.963C418.713 177.698 420.441 181.273 423.897 183.688C427.354 186.103 431.757 187.31 437.108 187.31ZM435.474 80.5629L413.67 48.1055H438.883L454.721 80.5629H435.474Z" fill="black"/>
<path d="M346.89 94.9086H372.6V210.249C372.6 218.109 371.108 224.596 368.125 229.71C365.142 234.823 360.834 238.635 355.199 241.144C349.565 243.654 342.723 244.909 334.674 244.909C333.727 244.909 332.851 244.885 332.046 244.838C331.241 244.838 330.365 244.814 329.418 244.767V223.815C330.128 223.862 330.767 223.886 331.336 223.886C331.904 223.933 332.496 223.957 333.111 223.957C338.035 223.957 341.563 222.749 343.694 220.335C345.824 217.967 346.89 214.487 346.89 209.894V94.9086ZM359.674 79.4256C355.554 79.4256 352.027 78.0762 349.091 75.3773C346.203 72.6311 344.759 69.3404 344.759 65.5051C344.759 61.6226 346.203 58.3319 349.091 55.633C352.027 52.8868 355.554 51.5137 359.674 51.5137C363.746 51.5137 367.226 52.8868 370.114 55.633C373.05 58.3319 374.517 61.6226 374.517 65.5051C374.517 69.3404 373.05 72.6311 370.114 75.3773C367.226 78.0762 363.746 79.4256 359.674 79.4256Z" fill="black"/>
<path d="M272.796 206.13C262.143 206.13 252.91 203.787 245.097 199.099C237.285 194.412 231.224 187.854 226.915 179.426C222.654 170.998 220.523 161.149 220.523 149.88C220.523 138.611 222.654 128.739 226.915 120.264C231.224 111.788 237.285 105.207 245.097 100.52C252.91 95.832 262.143 93.4883 272.796 93.4883C283.45 93.4883 292.683 95.832 300.495 100.52C308.308 105.207 314.344 111.788 318.606 120.264C322.915 128.739 325.069 138.611 325.069 149.88C325.069 161.149 322.915 170.998 318.606 179.426C314.344 187.854 308.308 194.412 300.495 199.099C292.683 203.787 283.45 206.13 272.796 206.13ZM272.938 185.534C278.715 185.534 283.544 183.948 287.427 180.775C291.309 177.556 294.198 173.247 296.092 167.849C298.033 162.451 299.004 156.438 299.004 149.809C299.004 143.133 298.033 137.096 296.092 131.699C294.198 126.253 291.309 121.921 287.427 118.701C283.544 115.482 278.715 113.872 272.938 113.872C267.02 113.872 262.095 115.482 258.165 118.701C254.283 121.921 251.371 126.253 249.43 131.699C247.536 137.096 246.589 143.133 246.589 149.809C246.589 156.438 247.536 162.451 249.43 167.849C251.371 173.247 254.283 177.556 258.165 180.775C262.095 183.948 267.02 185.534 272.938 185.534Z" fill="black"/>
<path d="M88.0521 80.0651C110.161 80.0651 128.085 62.1419 128.085 40.0326C128.085 17.9232 110.161 0 88.0521 0C65.9427 0 48.0195 17.9232 48.0195 40.0326C48.0195 62.1419 65.9427 80.0651 88.0521 80.0651Z" fill="#FDAF40"/>
<path fill-rule="evenodd" clip-rule="evenodd" d="M176.128 85.875C176.128 134.511 136.692 173.947 88.056 173.947C39.4203 173.947 0 134.511 0 85.875H176.128Z" fill="#603814"/>
<path fill-rule="evenodd" clip-rule="evenodd" d="M176.128 173.943C176.128 222.579 136.692 261.999 88.056 261.999C39.4203 261.999 0 222.579 0 173.943H176.128Z" fill="#603814"/>
</svg>
