<svg width="67" height="112" viewBox="0 0 67 112" fill="none" xmlns="http://www.w3.org/2000/svg">
<path d="M24.865 36.4796C24.5806 36.1257 24.3259 35.8181 24.0977 35.5469L26.8496 38.924C26.1881 38.1037 25.5265 37.29 24.865 36.4796Z" fill="#FDAF40"/>
<path d="M46.6295 69.0232C43.0606 65.2724 39.7099 61.3396 37.4144 56.6362C37.345 56.4973 37.2061 56.3914 37.173 56.355C36.4519 57.7905 35.9161 59.2492 35.0594 60.4896C32.4596 64.2503 27.4783 64.3297 24.6933 60.6781C22.378 57.645 22.0241 54.2084 23.0561 50.6295C24.2402 46.5016 27.1674 44.5402 31.6823 44.8974C30.0087 42.8302 28.421 40.8588 26.8532 38.9305L24.1013 35.5534L24.0517 35.4939L19.2589 29.6129L18.9083 29.1862C16.6128 26.3681 14.3272 23.5566 12.0218 20.7286C9.89171 22.4254 8.87958 24.5059 8.4562 26.937C8.34705 27.5787 8.40659 28.5776 7.37792 28.2535C7.03723 28.1476 6.7627 27.1322 6.82885 26.5699C7.11331 24.0131 8.6282 22.098 10.4044 20.3813C11.1552 19.6536 11.0626 19.1906 10.0042 18.668C7.00746 22.313 4.6359 26.1234 5.81672 31.1146C6.29632 33.1421 5.8101 34.7496 4.26544 36.0528C3.47161 36.7243 2.57524 37.27 1.74834 37.9018C0.593978 38.7849 0.541056 39.5788 1.54657 40.6306C1.85087 40.9547 2.24117 41.2028 2.54217 41.527C2.88947 41.9007 3.52784 42.5325 3.43523 42.6846C3.13424 43.1742 2.61824 43.624 2.0791 43.8588C0.858588 44.3947 0.560904 44.9702 1.11989 46.1576C1.28197 46.5016 1.4705 46.8324 1.61934 47.1235C1.13974 47.5601 0.670052 47.8677 0.362443 48.2944C-0.193238 49.0551 -0.137007 49.9779 0.719667 50.3285C1.88726 50.8082 1.92695 51.5954 1.83103 52.5843C1.78141 53.0772 1.77811 53.5766 1.7748 54.0728C1.74834 56.8909 2.74062 58.0155 5.51903 58.1312C7.35476 58.2073 9.20372 58.2338 11.0295 58.075C15.1111 57.7244 17.9425 59.2492 20.1354 62.8214C23.9822 69.0828 23.3074 76.1214 25.9635 83.1402C30.3196 82.0685 39.1609 79.7333 42.5214 76.7366C44.2579 75.1886 45.5314 73.1115 46.9503 71.2261C47.5259 70.4587 47.3472 69.7906 46.6229 69.0299L46.6295 69.0232ZM1.45396 45.0595C2.94901 44.1433 3.66676 44.5601 4.37459 46.5314C3.22023 45.9526 2.3371 45.506 1.45396 45.0595ZM2.87293 39.8235C2.66455 39.8235 2.30071 39.6416 2.28417 39.5093C2.2511 39.2083 2.28417 38.7651 2.47601 38.5997C3.48815 37.7596 4.5532 36.9922 5.6348 36.1719C5.6811 37.2403 3.71637 39.8136 2.87293 39.8202V39.8235Z" fill="#FDAF40"/>
<path d="M8.96154 14.6437C8.90531 13.1123 12.8182 9.54999 13.9759 9.83445C14.4224 9.9436 14.8656 10.2777 15.1898 10.6184C23.6011 19.4199 31.9958 28.2348 40.3939 37.0496C42.1767 38.9184 43.9727 40.7773 45.739 42.6593C47.1911 44.204 47.158 44.7299 45.5571 46.0265C43.8967 47.3694 42.223 48.699 40.5394 50.0155C38.9749 51.236 38.4755 51.1864 37.2153 49.6384C32.6904 44.0981 28.1755 38.5479 23.6639 32.9977C19.0233 27.2954 14.386 21.5897 9.76198 15.8775C9.40145 15.4309 9.13023 14.9083 8.96154 14.6437Z" fill="#FDAF40"/>
<path d="M60.0582 77.0853C62.0924 78.4514 63.9546 79.6818 65.8002 80.9387C66.938 81.7127 66.9744 82.7778 66.5742 83.9784C65.2445 87.9674 62.8895 91.3445 60.1707 94.4669C52.454 103.328 43.0305 109.338 31.305 111.319C25.5531 112.292 19.8143 112.047 14.1484 110.628C11.8529 110.052 11.3038 108.438 12.7096 106.5C13.7581 105.051 14.9058 103.672 15.8915 102.18C16.5067 101.251 17.1947 101.009 18.2597 101.188C25.1661 102.342 31.8342 101.373 38.2378 98.6577C47.4495 94.7547 54.0218 87.9873 58.8211 79.3577C59.2048 78.6697 59.5753 77.9751 60.0582 77.082V77.0853ZM55.9931 92.4625C56.7241 93.2795 57.6271 93.3886 58.497 92.8329C59.6414 92.1053 59.4264 91.0237 59.0196 89.9586C61.196 90.5573 61.8509 89.9586 61.8675 87.3423C63.7991 87.1405 64.1861 86.6477 64.0637 84.5242C65.2644 84.3224 66.1773 83.7866 65.9425 82.3775C65.7804 81.415 65.1023 80.8957 64.11 81.0479C62.5918 81.2794 62.5455 82.4371 62.7043 83.6014C60.8024 84.1107 60.4485 84.6333 60.7032 86.4426C58.4474 86.6841 57.9579 87.3886 58.5334 89.5617C57.5576 89.2706 56.443 89.0788 55.9534 90.124C55.6524 90.769 55.9931 91.7116 56.0427 92.5187C55.669 92.3897 55.2423 92.0821 54.9314 92.1714C54.1475 92.393 53.1056 92.6047 52.7483 93.1802C52.4308 93.6962 52.6359 94.9399 53.0857 95.403C53.5256 95.8561 54.7825 96.0843 55.2787 95.7734C55.8575 95.4096 56.0758 94.3743 56.304 93.5871C56.3967 93.2695 56.1089 92.8396 55.9931 92.4625ZM17.9091 108.676C19.5431 108.657 20.6644 107.472 20.628 105.802C20.5949 104.234 19.295 102.971 17.7603 103.01C16.1528 103.053 14.9918 104.287 15.0282 105.911C15.0646 107.489 16.3182 108.696 17.9091 108.676ZM26.8496 106.083C26.8066 104.565 25.5464 103.374 24.0315 103.421C22.5729 103.467 21.4318 104.711 21.5078 106.173C21.5839 107.625 22.8011 108.782 24.2465 108.779C25.6655 108.779 26.886 107.509 26.8463 106.08L26.8496 106.083ZM31.1396 108.008C32.4991 108.012 33.5443 106.94 33.5674 105.521C33.5906 104.069 32.509 102.905 31.1066 102.872C29.7074 102.839 28.5696 103.999 28.5861 105.438C28.606 106.864 29.7372 108.002 31.1396 108.005V108.008ZM37.0867 106.308C38.4859 106.341 39.4451 105.448 39.4848 104.069C39.5278 102.673 38.519 101.552 37.1761 101.506C35.8497 101.459 34.8508 102.418 34.8012 103.788C34.7483 105.253 35.6744 106.275 37.0834 106.308H37.0867ZM44.648 101.912C44.648 100.593 43.5995 99.5342 42.3161 99.5673C41.0427 99.597 40.1463 100.569 40.1661 101.896C40.1893 103.202 41.1187 104.138 42.4021 104.148C43.6855 104.158 44.6447 103.206 44.648 101.912ZM44.7737 99.349C44.7505 100.579 45.7957 101.674 46.9931 101.674C48.1574 101.674 49.1463 100.652 49.1331 99.468C49.1199 98.2641 48.1574 97.2486 47.0096 97.2255C45.8486 97.2023 44.7968 98.2012 44.777 99.3523L44.7737 99.349ZM53.003 96.9542C53.0593 95.7933 52.196 94.8175 51.0515 94.7514C49.8409 94.6819 48.9512 95.4757 48.8817 96.6962C48.8156 97.8341 49.7086 98.8528 50.8266 98.9223C52.0008 98.995 52.9435 98.1417 53.003 96.9575V96.9542Z" fill="#FDAF40"/>
<path d="M16.6602 10.2846C18.2478 9.16002 19.6205 8.18757 20.9965 7.21513C21.9424 6.54369 22.7396 6.90752 23.5797 7.49297C30.7506 12.4974 37.9348 17.4787 45.1157 22.4699C47.8081 24.342 50.5071 26.2042 53.1896 28.0862C54.7375 29.1711 54.85 29.9749 53.4806 31.3079C50.6328 34.0763 47.7254 36.7787 44.689 39.653C35.5599 30.0874 26.1828 20.2637 16.6602 10.2879V10.2846Z" fill="#FDAF40"/>
<path d="M43.4527 19.4191C47.7063 20.3684 51.9566 21.3475 56.2234 22.2372C56.875 22.3728 57.8276 23.0807 58.2047 21.9098C58.251 21.7642 57.176 21.0663 56.5542 20.9241C51.3315 19.7234 46.0922 18.6021 40.8628 17.4312C40.2939 17.3022 39.6953 17.1071 39.2223 16.7829C34.7537 13.7234 30.3115 10.6275 25.8628 7.54475C25.7007 7.43229 25.5221 7.34629 25.3203 7.23053C26.0711 6.23162 26.7823 6.00009 27.8639 6.20516C39.176 8.33527 50.5013 10.3992 61.8233 12.493C63.4374 12.7906 63.831 13.3099 63.5201 14.9638C62.7725 18.9627 61.9886 22.9517 61.165 26.9374C60.8244 28.5879 60.2521 28.8525 58.6215 28.5283C55.9522 27.9991 53.5509 26.977 51.3645 25.3001C48.7747 23.3155 46.0293 21.5294 43.3502 19.6606C43.3866 19.5812 43.4229 19.5018 43.4593 19.4191H43.4527Z" fill="#FDAF40"/>
<path d="M60.7481 10.9785C50.3456 9.06339 40.2772 7.21112 30.2386 5.36216C30.2253 3.21882 30.6454 2.70614 32.6763 2.48122C39.3875 1.73701 46.0986 1.01594 52.8131 0.29819C56.7624 -0.121879 56.4747 -0.753636 58.0623 3.60251C58.9223 5.96084 59.779 8.31918 60.7448 10.9818L60.7481 10.9785Z" fill="#FDAF40"/>
<path d="M55.4204 74.2166C56.4359 74.8053 57.4513 75.3941 58.4535 75.9762C52.2947 88.049 36.4016 98.4482 20.4258 96.1693C21.2461 95.0414 22.0895 94.0921 22.6915 93.0072C24.1336 90.4041 26.1248 89.6268 29.2042 89.3556C39.5405 88.4526 47.1778 83.0843 51.9937 73.8263C52.2385 73.3533 52.4833 72.8836 52.8273 72.2188C53.7832 72.9597 54.6233 73.608 55.4634 74.2596C54.4116 73.9619 53.7071 74.1868 53.6641 75.4404C53.6575 75.6157 53.5715 75.8009 53.4756 75.9531C52.7214 77.1339 51.9607 78.3114 51.1867 79.4823C51.0941 79.6245 50.9419 79.7899 50.7931 79.823C49.3179 80.1703 49.427 81.103 49.9 82.178C49.3377 82.1449 48.362 81.9366 48.2892 82.1119C48.0378 82.7006 48.1073 83.425 48.0577 84.0964C47.3796 84.0964 46.7016 84.0898 46.0235 84.0865C46.0301 84.8142 46.0367 85.5419 46.0433 86.2695C45.7589 86.0744 45.4976 85.823 45.1833 85.694C44.3002 85.3269 43.4634 85.6047 43.3046 86.4878C43.2087 87.0237 43.6618 87.963 44.1415 88.2243C44.932 88.6543 45.6762 88.178 45.9342 87.2519C46.0235 86.9278 45.9805 86.5672 45.9937 86.2199C48.1007 86.5176 48.6597 85.9222 48.018 84.0601C48.696 83.9972 49.3774 83.9344 50.0555 83.8748C49.9926 83.3026 49.9298 82.7271 49.8702 82.1549C51.0544 82.4988 51.9607 82.3996 52.0434 80.8616C52.0533 80.673 52.2584 80.4845 52.394 80.3125C53.1812 79.3467 54.0048 78.4073 54.7556 77.4117C55.0004 77.0843 54.9508 76.4757 55.2352 76.2507C56.0687 75.5925 56.0158 74.9575 55.4271 74.2199L55.4204 74.2166ZM26.1347 94.7867C27.2461 94.7701 28.1325 93.8672 28.0267 92.8517C27.9142 91.7734 27.2726 91.1648 26.1678 91.145C25.1028 91.1251 24.3255 91.9719 24.3883 93.0601C24.4545 94.2078 25.1821 94.6676 26.138 94.79L26.1347 94.7867ZM28.331 92.263C28.3244 92.5011 28.3178 92.7393 28.3112 92.9774C28.9429 93.4372 29.5217 94.1417 30.223 94.3005C31.2318 94.5254 31.9165 93.8308 31.9793 92.7756C32.0488 91.6345 31.3476 90.8704 30.2957 90.9928C29.6011 91.0722 28.9826 91.8164 28.331 92.263ZM35.0885 89.941C34.8603 89.9344 34.632 89.9278 34.4038 89.9212C33.9573 90.5165 33.2527 91.0623 33.1204 91.7205C32.9121 92.7624 33.6464 93.3975 34.7081 93.4074C35.7202 93.4173 36.4016 92.7525 36.2726 91.823C36.18 91.1516 35.5019 90.5628 35.0885 89.941ZM38.2175 92.2166C38.449 92.21 38.6773 92.2001 38.9088 92.1935C39.2859 91.6147 39.8912 91.0656 39.9838 90.4438C40.126 89.4614 39.4016 88.8627 38.4358 88.8958C37.4634 88.9289 36.7952 89.597 37.0069 90.5595C37.1425 91.1714 37.7974 91.6676 38.2175 92.2166ZM43.4766 89.1306C43.4733 88.8991 43.47 88.6643 43.4667 88.4327C42.8779 88.0623 42.2329 87.3346 41.7136 87.4173C41.1613 87.5033 40.4303 88.3137 40.3509 88.8859C40.298 89.2729 41.2109 90.1461 41.7269 90.1725C42.2892 90.2023 42.8912 89.511 43.4766 89.1306Z" fill="#FDAF40"/>
<path d="M26.3633 85.017C27.134 84.6399 30.1968 83.8262 31.0105 83.6178C35.026 82.5792 38.8529 81.1371 42.2796 78.7457C44.9422 76.8868 47.0723 74.5946 48.3424 71.5682C48.7063 70.6983 49.1727 70.0863 50.2543 70.5858C51.2631 71.0522 51.4218 71.6178 50.9323 72.6895C47.1649 80.9089 40.5166 84.716 31.7679 85.3709C30.8054 85.4437 27.5044 85.6719 26.5386 85.6719C26.479 85.4536 26.4195 85.2386 26.3633 85.0203V85.017Z" fill="#FDAF40"/>
<path d="M25.9561 48.4473C25.4037 50.8552 25.5459 52.8563 26.5614 54.7218C27.2527 55.9886 28.192 57.0074 29.7929 56.9975C31.3674 56.9876 32.5383 56.1176 32.9947 54.7417C33.6099 52.8861 33.8745 50.9148 34.2351 49.251C36.7191 52.1783 35.9021 58.6546 32.4126 61.0162C30.4975 62.3128 28.2847 62.1111 26.5713 60.4837C23.5316 57.5995 23.138 52.2411 25.9561 48.4473Z" fill="#FDAF40"/>
<path d="M49.336 89.1641C43.8883 96.679 26.477 102.381 18.1914 99.5368C18.9025 97.6547 18.9919 97.6415 21.2344 97.8466C30.7438 98.7132 39.304 96.0836 47.1232 90.765C47.8013 90.3019 48.4562 89.8024 49.336 89.1641Z" fill="#FDAF40"/>
<path d="M26.8281 50.6965C27.3871 49.3966 27.7344 48.143 28.4224 47.1144C29.1898 45.9666 30.2052 46.0361 31.1776 47.0184C32.9009 48.7682 32.9307 52.9755 31.2306 54.7417C30.2879 55.7208 29.0376 55.7638 28.3331 54.583C27.6517 53.4352 27.3408 52.0659 26.8281 50.6965Z" fill="#FDAF40"/>
<path d="M26.6641 87.5341C27.1371 87.2662 27.6001 86.7866 28.0797 86.7701C30.3951 86.6907 32.717 86.7337 35.0952 87.0016C32.3664 87.4117 29.6376 87.8186 26.9088 88.2287C26.8261 87.9972 26.7434 87.769 26.6641 87.5374V87.5341Z" fill="#FDAF40"/>
</svg>
