<svg width="132" height="73" viewBox="0 0 132 73" fill="none" xmlns="http://www.w3.org/2000/svg">
<path d="M65.8786 40.2482C64.0897 42.8966 61.8169 42.0913 59.5536 41.3242C59.3213 41.2446 58.9488 41.0918 58.7292 40.974C57.752 40.452 56.762 40.4965 55.7593 40.9326C53.687 41.8335 51.5861 41.8653 49.3834 41.4133C48.5334 41.2382 47.5371 41.5438 46.6585 41.808C45.8628 42.0467 45.1402 42.5338 44.3762 42.8903C43.1061 43.4855 41.8774 43.5492 40.6296 42.7725C39.8051 42.26 38.7356 42.3396 37.9939 42.9635C37.3509 43.5046 36.7684 44.1222 36.1031 44.6315C35.0335 45.4527 33.9353 45.0262 33.5916 43.7115C33.2987 42.5879 33.2796 41.512 33.7571 40.3978C38.0066 30.5204 43.4499 21.4101 50.9559 13.6304C54.104 10.3676 57.5769 7.50914 61.7055 5.53875C62.3676 5.22361 63.0711 4.99442 63.8541 4.68565C63.192 3.53652 62.5363 2.39376 61.8583 1.21916C61.5463 0.678017 61.9379 0 62.5618 0H69.5839C70.2078 0 70.5993 0.678017 70.2842 1.21916C69.5966 2.40649 68.9345 3.54925 68.2724 4.69838C76.5932 7.39136 81.7214 13.7259 86.4675 20.4393C89.6921 25.0039 92.35 29.9061 94.4669 35.0883C95.2372 36.9727 96.1157 38.8317 96.6664 40.7798C96.9657 41.8335 96.9879 43.1895 96.5678 44.1636C96.1348 45.1631 94.8138 45.3954 93.6711 45.3668C92.697 45.3413 92.0413 44.797 91.6657 43.9184C91.5542 43.6542 91.4874 43.3678 91.2964 42.7757C91.1436 43.0972 91.0768 43.2372 91.0099 43.3805C90.2205 45.0453 88.7435 45.2045 87.2124 44.0617C86.4134 43.4664 85.764 42.677 85.0001 42.0308C84.7836 41.8462 84.2743 41.6839 84.1119 41.8016C81.3776 43.8166 78.8119 42.798 76.329 41.3401C75.511 40.8594 74.8712 40.8658 74.0785 41.2764C72.6397 42.0213 71.1786 42.7343 69.4661 42.5369C67.9668 42.3651 66.9418 41.4483 65.8818 40.2482H65.8786Z" fill="#FDAF40"/>
<path d="M113.134 53.9237C111.819 55.6076 110.301 55.3307 108.661 54.5572C108.283 54.3789 107.662 54.4521 107.258 54.6368C105.927 55.2447 104.644 55.8336 103.224 54.8596C103.081 54.7609 102.696 54.8946 102.495 55.0283C102.206 55.2225 101.993 55.5312 101.725 55.7636C100.665 56.6708 100.089 56.6326 99.2359 55.6554C98.8603 55.9992 98.542 56.4957 98.1027 56.6549C97.065 57.0305 96.0145 56.2856 96.0941 55.1938C96.1609 54.3121 96.4251 53.4208 96.7498 52.59C98.5579 47.9775 100.926 43.6611 104.183 39.9145C106.248 37.5367 108.537 35.3594 111.787 34.3758C111.443 33.755 111.106 33.1439 110.75 32.4977C110.574 32.1794 110.804 31.791 111.166 31.791H114.894C115.257 31.791 115.486 32.1825 115.308 32.5009C114.967 33.1089 114.643 33.6946 114.318 34.2803C120.738 37.1802 124.593 42.5343 127.986 48.3054C129.002 50.0307 129.785 51.8928 130.667 53.6945C130.794 53.9556 130.947 54.2325 130.966 54.5094C131.011 55.2034 131.233 56.1042 130.425 56.3875C130.033 56.5244 129.327 56.0883 128.9 55.7413C128.206 55.1811 127.659 54.9455 126.732 55.388C126.182 55.649 125.268 55.458 124.647 55.1843C123.61 54.7227 122.661 54.4076 121.48 54.6718C120.767 54.8309 119.914 54.6877 119.201 54.4458C118.284 54.137 117.46 54.0224 116.591 54.5158C116.371 54.6399 116.097 54.6622 115.852 54.745C114.799 55.0919 113.869 54.9837 113.137 53.9269L113.134 53.9237Z" fill="#FDAF40"/>
<path d="M15.7262 32.6192C15.4111 32.0526 15.0578 31.4191 14.6694 30.7188C14.5421 30.4896 14.7076 30.2031 14.9718 30.2031H19.1291C19.3965 30.2031 19.562 30.4928 19.4283 30.722C19.0272 31.4159 18.6484 32.0685 18.276 32.7115C23.4041 34.9142 26.9343 38.7627 29.8023 43.2192C31.6868 46.1477 33.1701 49.3341 34.8126 52.4122C34.9718 52.7146 35.1182 53.1157 35.0514 53.4245C34.9432 53.9274 34.7681 54.615 34.402 54.806C34.1123 54.9556 33.4184 54.5736 33.0396 54.2617C32.3298 53.6728 31.7823 53.1985 30.7445 53.816C30.2702 54.0993 29.328 53.8956 28.7391 53.6187C27.6091 53.0871 26.5523 52.8229 25.2822 53.0903C24.5532 53.243 23.6874 52.9979 22.9521 52.756C22.2168 52.5141 21.456 52.5459 20.7589 52.8356C20.1413 53.0903 19.4442 53.3226 18.8012 53.2812C18.2155 53.243 17.6584 52.8197 16.9932 52.5236C15.8727 53.937 14.3957 53.851 12.8518 52.9852C12.282 52.6669 11.8237 52.6796 11.2443 53.0107C9.97104 53.7364 8.64684 54.2426 7.2335 53.2526C7.10299 53.1603 6.74647 53.2621 6.57458 53.3831C6.28491 53.5836 6.07482 53.8892 5.80425 54.1216C4.72197 55.0543 4.16491 55.0288 3.11764 53.9561C2.84389 54.7901 2.34413 55.2803 1.41463 55.1179C0.211389 54.9079 -0.332936 53.9656 0.211389 52.6032C1.14406 50.2604 2.0831 47.9017 3.2577 45.6766C5.43182 41.5512 8.0293 37.7059 11.8268 34.8665C12.9951 33.9943 14.3702 33.3927 15.7262 32.6224V32.6192Z" fill="#FDAF40"/>
<path d="M55.4344 72.9961H50.6055V43.7872C52.7669 44.1532 54.7659 43.4116 56.8 42.7845C57.2647 42.6412 57.8727 42.8386 58.3852 42.9818C59.5661 43.3161 60.7089 43.784 61.8994 44.0673C63.3319 44.4111 64.6051 44.0928 65.5028 42.8004C65.5887 42.6762 65.7288 42.5871 65.888 42.4375C66.0789 42.6126 66.2445 42.7558 66.3973 42.9118C68.2117 44.7771 70.077 45.1591 72.4867 44.1564C72.6077 44.1055 72.735 44.0673 72.84 43.9941C74.3871 42.8927 75.8768 42.8991 77.4461 44.0355C77.965 44.4111 78.2674 44.6657 78.2674 45.3629C78.2387 53.8651 78.2483 62.3643 78.2483 70.8666C78.2483 71.5478 78.2483 72.2258 78.2483 72.977H75.7622C75.4598 70.284 75.2911 67.6006 74.8359 64.9649C74.2024 61.2947 72.9992 57.8059 70.5545 54.887C67.6005 51.3568 63.768 51.3186 60.7567 54.8042C58.4457 57.4781 57.2138 60.6899 56.5867 64.0959C56.0519 67.0085 55.8163 69.9784 55.4375 72.9993L55.4344 72.9961Z" fill="#FDAF40"/>
<path d="M23.5178 70.355C23.1486 68.2032 22.9544 66.1627 22.4132 64.2178C22.0408 62.8809 21.35 61.5567 20.5192 60.4362C18.9786 58.3639 16.7599 58.3958 15.0951 60.3821C13.4717 62.3174 12.87 64.6666 12.5358 67.0986C12.3957 68.1236 12.3607 69.1613 12.2716 70.2786H4.67969C3.99531 67.5792 3.52738 59.7168 3.84251 55.9702C4.97891 56.1007 5.72378 55.4163 6.45909 54.6682C6.63417 54.49 7.09573 54.3213 7.23261 54.4168C8.61093 55.3813 9.90649 54.9261 11.1511 54.2099C11.7496 53.8661 12.2334 53.7833 12.8478 54.1366C14.3916 55.0247 15.8686 55.098 17.126 53.5C18.2082 54.9452 19.5133 54.5345 20.7675 54.0029C21.541 53.6751 22.2159 53.7292 23.0117 53.9361C23.8934 54.1621 24.8484 54.0921 25.7683 54.1939C26.5864 54.2831 27.449 54.2958 28.1971 54.5855C29.273 55.0056 30.2693 55.6073 31.4312 54.5855C31.5012 54.9675 31.5649 55.1775 31.5745 55.3876C31.7782 60.0924 31.896 64.7908 31.062 69.4605C30.941 70.1353 30.7373 70.3868 30.0274 70.3709C27.8215 70.3263 25.6155 70.355 23.5242 70.355H23.5178Z" fill="#FDAF40"/>
<path d="M126.863 71.8635H119.52C119.157 69.7817 118.979 67.7636 118.415 65.86C117.992 64.4371 117.247 63.027 116.33 61.8556C114.882 59.9966 112.806 60.0602 111.231 61.8046C109.575 63.635 108.939 65.9109 108.582 68.2729C108.404 69.4506 108.366 70.6475 108.258 71.8953H100.602C99.768 67.1556 99.6852 62.3744 99.8062 57.5328C101 57.7556 101.665 56.963 102.413 56.3009C102.617 56.1195 103.088 55.9476 103.254 56.0558C104.613 56.9312 105.889 56.5237 107.105 55.8234C107.707 55.4765 108.21 55.3873 108.818 55.7311C110.374 56.6129 111.842 56.6542 113.134 55.0977C114.07 56.4505 115.28 56.2086 116.461 55.6993C117.412 55.2855 118.269 55.2664 119.259 55.6261C119.956 55.8807 120.809 55.9348 121.544 55.8043C122.566 55.6197 123.46 55.7311 124.349 56.2309C125.319 56.7784 126.313 57.1667 127.452 56.1131C127.815 61.55 127.907 66.729 126.866 71.8635H126.863Z" fill="#FDAF40"/>
<path d="M82.2615 72.9865C82.2615 72.5249 82.2615 72.1398 82.2615 71.7546C82.2615 63.195 82.3219 54.6354 82.2073 46.0758C82.1851 44.5002 83.366 44.4906 84.1013 43.9335C84.8176 43.3924 85.0977 44.3505 85.5274 44.7039C86.1259 45.1973 86.6574 45.7766 87.2845 46.2286C88.2904 46.9512 89.3663 47.3109 90.4645 46.3305C91.4641 49.9275 90.7224 67.0785 89.3281 72.9833H82.2615V72.9865Z" fill="#FDAF40"/>
<path d="M46.4848 43.9766V72.9977H41.7196C40.5386 69.1715 39.6856 52.8768 40.2553 44.6546C42.5027 46.3862 44.4158 45.0079 46.4848 43.9766Z" fill="#FDAF40"/>
</svg>
