<svg width="20" height="20" viewBox="0 0 20 20" fill="none" xmlns="http://www.w3.org/2000/svg">
<path fill-rule="evenodd" clip-rule="evenodd" d="M5.26159 10.0003C5.26159 9.45898 5.35143 8.93997 5.51198 8.45326L2.70339 6.30859C2.15599 7.41992 1.84766 8.67227 1.84766 10.0003C1.84766 11.3272 2.15573 12.5786 2.70221 13.6893L5.50925 11.5405C5.35026 11.056 5.26159 10.5389 5.26159 10.0003Z" fill="#FBBC05"/>
<path fill-rule="evenodd" clip-rule="evenodd" d="M10.1926 5.07513C11.3685 5.07513 12.4306 5.4918 13.2651 6.17357L15.6927 3.74935C14.2134 2.46146 12.3168 1.66602 10.1926 1.66602C6.89466 1.66602 4.06029 3.55195 2.70312 6.30768L5.51159 8.45234C6.15872 6.48802 8.00339 5.07513 10.1926 5.07513Z" fill="#EA4335"/>
<path fill-rule="evenodd" clip-rule="evenodd" d="M10.1926 14.9241C8.00352 14.9241 6.15885 13.5112 5.51172 11.5469L2.70312 13.6911C4.06029 16.4473 6.89466 18.3332 10.1926 18.3332C12.228 18.3332 14.1714 17.6104 15.6298 16.2563L12.9639 14.1953C12.2117 14.6691 11.2645 14.9241 10.1926 14.9241Z" fill="#34A853"/>
<path fill-rule="evenodd" clip-rule="evenodd" d="M18.1572 9.99948C18.1572 9.50703 18.0812 8.97669 17.9674 8.48438H10.1914V11.704H14.6674C14.4436 12.8018 13.8345 13.6457 12.9628 14.1949L15.6286 16.2559C17.1607 14.834 18.1572 12.7158 18.1572 9.99948Z" fill="#4285F4"/>
</svg>
