<svg width="100" height="98" viewBox="0 0 100 98" fill="none" xmlns="http://www.w3.org/2000/svg">
<path d="M2.30633 34.832L20.4135 41.7974L19.7819 50.28L0.811728 42.2684C0.151848 41.9892 -0.169631 41.2363 0.0898088 40.5651L2.30915 34.832H2.30633Z" fill="#603814"/>
<path d="M20.9508 34.6358L20.5362 40.194L2.86328 33.3978L12.8433 7.62305L20.9282 34.5174C20.9423 34.5569 20.9479 34.5935 20.9508 34.6358Z" fill="#603814"/>
<path d="M40.531 28.5666C40.4125 28.4594 40.3477 28.3072 40.3477 28.1492V0H58.7143V28.3579C58.7143 28.5187 58.6438 28.6738 58.5254 28.7781L49.9357 36.3724C49.7242 36.5613 49.4027 36.5585 49.1912 36.3724L40.5338 28.5722L40.531 28.5666Z" fill="#603814"/>
<path d="M64.6063 0V32.4413C64.6063 32.6048 64.5358 32.7628 64.4061 32.8699L49.9931 45.01C49.7816 45.1877 49.4798 45.1877 49.2712 45.01L34.6974 32.6612C34.5705 32.5569 34.5 32.399 34.5 32.2354V0.262258L35.3573 0.0422983C35.4644 0.0140983 35.5772 0 35.6872 0H38.809V28.1492C38.809 28.7443 39.0628 29.3111 39.4999 29.7087L48.1601 37.5116C48.5577 37.8698 49.0597 38.0503 49.5616 38.0503C50.0636 38.0503 50.5543 37.8754 50.9519 37.5257L59.5444 29.9315C59.9928 29.5339 60.2522 28.9642 60.2522 28.3607V0H64.6091H64.6063Z" fill="#603814"/>
<path d="M46.3757 44.5665L45.9922 44.2422L46.3842 44.5524L46.3757 44.5665Z" fill="#603814"/>
<path d="M76.8296 83.543V89.5157H21.8086L21.707 83.543H76.8296Z" fill="#603814"/>
<path d="M21.8309 91.0527H76.8294V96.4361C76.8294 97.1693 76.2344 97.7643 75.5012 97.7643H23.2466C22.5218 97.7643 21.9296 97.1834 21.9184 96.4587L21.8281 91.0527H21.8309Z" fill="#603814"/>
<path d="M43.6023 60.2207H28.4617C28.0443 60.2207 27.7031 60.5986 27.7031 61.0667V76.8023C27.7031 77.2676 28.0443 77.6483 28.4617 77.6483H43.6023C44.0196 77.6483 44.3609 77.2704 44.3609 76.8023V61.0667C44.3609 60.6014 44.0196 60.2207 43.6023 60.2207ZM42.6942 64.524C42.6942 64.6227 42.2289 64.7073 41.6537 64.7073H30.4075C29.8322 64.7073 29.3669 64.6255 29.3669 64.524V62.581C29.3669 62.4823 29.8322 62.3977 30.4075 62.3977H41.6537C42.2289 62.3977 42.6942 62.4795 42.6942 62.581V64.524Z" fill="#603814"/>
<path d="M76.518 34.641V34.6241C76.5237 34.4408 76.5547 34.2519 76.6083 34.0742L85.3898 5.70501L66.1433 0.355469V5.38071H71.1741C71.5971 5.38071 71.944 5.72475 71.944 6.15057C71.944 6.36207 71.8566 6.55665 71.7184 6.69483C71.5774 6.83301 71.3885 6.92043 71.1741 6.92043H66.1433V12.0444H71.1741C71.5971 12.0444 71.944 12.3884 71.944 12.8142C71.944 13.0257 71.8566 13.2203 71.7184 13.3585C71.5774 13.4967 71.3885 13.5841 71.1741 13.5841H66.1433V18.4542H71.1741C71.5971 18.4542 71.944 18.7983 71.944 19.2241C71.944 19.4356 71.8566 19.6302 71.7184 19.7683C71.5774 19.9065 71.3885 19.9939 71.1741 19.9939H66.1433V25.1179H71.1741C71.5971 25.1179 71.944 25.4619 71.944 25.8877C71.944 26.0992 71.8566 26.2938 71.7184 26.432C71.5774 26.5702 71.3885 26.6576 71.1741 26.6576H66.1433V32.4471C66.1433 33.0675 65.8725 33.6512 65.3988 34.0516L63.7181 35.4701L67.2092 39.4604C67.4884 39.7819 67.4546 40.2641 67.1387 40.5433C66.9921 40.6702 66.8116 40.7322 66.6311 40.7322C66.4168 40.7322 66.2025 40.6448 66.053 40.47L62.5421 36.4599L58.9805 39.4576L62.3193 43.4676C62.5901 43.7947 62.5478 44.2798 62.2206 44.5505C62.0768 44.6718 61.8992 44.731 61.73 44.731C61.51 44.731 61.29 44.6351 61.1378 44.4518L57.8045 40.4502L53.9862 43.665L57.17 47.7004C57.4351 48.0332 57.3759 48.5182 57.0431 48.7805C56.9021 48.8933 56.7329 48.9469 56.5665 48.9469C56.3409 48.9469 56.1153 48.8482 55.9631 48.6536L52.8075 44.6548L50.9886 46.1861C50.5994 46.516 50.1172 46.6796 49.6378 46.6796C49.1584 46.6796 48.6734 46.5132 48.2814 46.1833L46.4117 44.5956L43.4169 48.3942C43.2646 48.5859 43.039 48.6874 42.8134 48.6874C42.647 48.6874 42.4778 48.6339 42.3368 48.5211C42.0041 48.2588 41.9477 47.7766 42.2099 47.441L45.2386 43.603L41.4006 40.3487L37.9856 44.449C37.8333 44.6323 37.6133 44.7282 37.3934 44.7282C37.2213 44.7282 37.0465 44.6689 36.9027 44.5477C36.5784 44.277 36.5304 43.7919 36.804 43.4648L40.2275 39.3532L36.6743 36.3443L33.0675 40.4643C32.9152 40.6392 32.7037 40.7266 32.4922 40.7266C32.3117 40.7266 32.1312 40.6645 31.9846 40.5376C31.6631 40.2585 31.6349 39.7734 31.9141 39.4548L35.5011 35.3517L33.7133 33.8345C33.2451 33.4341 32.9716 32.8531 32.9716 32.2356V26.6548H27.7123C27.2865 26.6548 26.9424 26.3107 26.9424 25.8849C26.9424 25.6734 27.0299 25.4788 27.168 25.3407C27.3062 25.2025 27.498 25.1151 27.7123 25.1151H32.9716V19.9911H27.7123C27.2865 19.9911 26.9424 19.6471 26.9424 19.2213C26.9424 19.0098 27.0299 18.8152 27.168 18.677C27.3062 18.5388 27.498 18.4514 27.7123 18.4514H32.9716V13.5813H27.7123C27.2865 13.5813 26.9424 13.2372 26.9424 12.8114C26.9424 12.5999 27.0299 12.4053 27.168 12.2671C27.3062 12.129 27.498 12.0415 27.7123 12.0415H32.9716V6.91761H27.7123C27.2865 6.91761 26.9424 6.57357 26.9424 6.14775C26.9424 5.93625 27.0299 5.74167 27.168 5.60349C27.3062 5.46531 27.498 5.37789 27.7123 5.37789H32.9716V0.65157L14.2806 5.46531C14.1284 5.50479 13.9874 5.56683 13.8633 5.65143L22.4107 34.0714C22.4643 34.249 22.4953 34.4352 22.5009 34.6185V34.6974L21.2009 52.063L21.6916 81.9973H76.8367V52.1335C76.8367 52.0066 76.8536 51.8881 76.8875 51.7725H76.8367L76.5265 34.6354L76.518 34.641ZM45.6447 76.8C45.6447 77.9731 44.731 78.9263 43.6058 78.9263H28.4652C27.3401 78.9263 26.4264 77.9731 26.4264 76.8V61.0644C26.4264 59.8913 27.3401 58.9381 28.4652 58.9381H43.6058C44.731 58.9381 45.6447 59.8913 45.6447 61.0644V76.8ZM72.8097 76.8C72.8097 77.9731 71.8961 78.9263 70.7709 78.9263H55.6303C54.5051 78.9263 53.5914 77.9731 53.5914 76.8V61.0644C53.5914 59.8913 54.5051 58.9381 55.6303 58.9381H70.7709C71.8961 58.9381 72.8097 59.8913 72.8097 61.0644V76.8ZM70.7709 60.2184H55.6303C55.2129 60.2184 54.8717 60.5963 54.8717 61.0644V76.8C54.8717 77.2653 55.2129 77.646 55.6303 77.646H70.7709C71.1882 77.646 71.5295 77.2682 71.5295 76.8V61.0644C71.5295 60.5991 71.1882 60.2184 70.7709 60.2184ZM69.8628 64.5217C69.8628 64.6204 69.3975 64.705 68.8223 64.705H57.5761C57.0008 64.705 56.5355 64.6233 56.5355 64.5217V62.5788C56.5355 62.4801 57.0008 62.3955 57.5761 62.3955H68.8223C69.3975 62.3955 69.8628 62.4772 69.8628 62.5788V64.5217Z" fill="#603814"/>
<path d="M96.507 33.1515L78.1573 40.21L78.0586 34.6518C78.0586 34.6095 78.0699 34.5644 78.0811 34.5249L86.8034 6.3418C86.9049 6.46024 86.9867 6.59842 87.0403 6.74788L96.5099 33.1572L96.507 33.1515Z" fill="#603814"/>
<path d="M98.4323 42.254L78.3454 50.6181L78.1875 41.8451L97.0279 34.5977L99.1739 40.5789C99.4136 41.2416 99.0865 41.9804 98.4323 42.2511V42.254Z" fill="#603814"/>
<path d="M46.3842 44.5524L46.3757 44.5665L45.9922 44.2422L46.3842 44.5524Z" fill="#603814"/>
<path d="M46.3842 44.5524L46.3757 44.5665L45.9922 44.2422L46.3842 44.5524Z" fill="#603814"/>
</svg>
