<svg width="66" height="124" viewBox="0 0 66 124" fill="none" xmlns="http://www.w3.org/2000/svg">
<path d="M31.4951 51.6358C48.8872 51.6358 62.9863 49.014 62.9863 45.7798C62.9863 42.5456 48.8872 39.9238 31.4951 39.9238C14.103 39.9238 0.00390625 42.5456 0.00390625 45.7798C0.00390625 49.014 14.103 51.6358 31.4951 51.6358Z" fill="#603814"/>
<path d="M59.4078 70.2217C59.2798 70.6377 59.155 71.0345 59.027 71.4185C57.8334 75.0473 56.355 79.4377 53.0142 84.3945C51.123 87.2009 49.683 89.3353 47.0014 91.3577C41.5102 95.5017 35.4238 95.7001 32.7582 95.7897C30.2654 95.8729 24.3038 95.9945 18.515 92.6249C11.9198 88.7849 9.091 82.4713 5.875 73.9913L14.6142 64.7049L20.6782 84.0393C20.8094 84.4553 21.1678 84.7529 21.5998 84.8009C22.0318 84.8521 22.451 84.6441 22.6718 84.2729L34.2878 64.8169L44.4286 84.2313C44.6174 84.5961 44.9982 84.8201 45.4078 84.8201H45.4526C45.8782 84.8009 46.2558 84.5385 46.4222 84.1449L54.835 64.1289L59.411 70.2185L59.4078 70.2217Z" fill="#603814"/>
<path d="M62.5118 54.3242C62.0478 59.6874 61.0878 64.2698 60.0766 67.9466L55.5166 61.8794C55.2798 61.5626 54.8894 61.3994 54.5022 61.4442C54.115 61.489 53.7758 61.7482 53.6222 62.113L45.331 81.8474L35.3118 62.6698C35.1294 62.3146 34.7646 62.0906 34.3678 62.0778C33.9742 62.0778 33.5966 62.273 33.3918 62.6154L21.9582 81.7674L16.019 62.8298C15.9006 62.4554 15.5902 62.1738 15.2126 62.0874C14.8318 62.001 14.435 62.1258 14.1662 62.4074L5.13256 72.0074C5.05576 71.8122 4.98216 71.6138 4.90856 71.4154C2.43496 64.8074 1.16776 58.8906 0.476562 54.3242C7.80456 56.465 17.987 58.6154 30.227 58.7562C43.683 58.9098 54.787 56.5802 62.5118 54.3242Z" fill="#603814"/>
<path d="M31.4946 104.651C24.093 104.606 18.1026 102.981 14.1378 101.544C13.9522 101.477 13.8594 101.272 13.9298 101.086C14.7778 98.8144 15.629 96.5392 16.477 94.2672C16.5506 94.0688 16.781 93.976 16.9698 94.0752C19.5874 95.4448 24.5794 97.5856 31.1778 97.6848C38.2786 97.7904 43.6514 95.4768 46.3202 94.0816C46.5122 93.9792 46.749 94.0784 46.8194 94.2864C47.597 96.6192 48.3746 98.9552 49.1522 101.291C49.213 101.474 49.117 101.675 48.9346 101.739C44.8834 103.157 38.8642 104.696 31.4914 104.651H31.4946Z" fill="#603814"/>
<path d="M55.4402 120.155C55.4977 120.331 55.4018 120.517 55.2258 120.571C49.2866 122.322 40.6786 124.143 30.2274 123.957C20.6722 123.791 12.7618 122.002 7.13295 120.261C6.95375 120.207 6.86095 120.011 6.92815 119.835C7.84015 117.391 8.75535 114.946 9.66735 112.501C9.72495 112.344 9.89135 112.258 10.0514 112.299C15.7346 113.8 23.3826 115.186 32.445 115.096C40.4833 115.016 47.3249 113.794 52.5569 112.45C52.7233 112.408 52.8898 112.501 52.9442 112.661C53.7762 115.157 54.6114 117.659 55.4402 120.155Z" fill="#603814"/>
<path d="M52.2836 110.795L46.6836 112.248L50.4532 104.654L52.2836 110.795Z" fill="#603814"/>
<path d="M44.7875 111.614L48.5155 104.654C47.1683 104.865 45.8211 105.073 44.4707 105.285C43.0979 105.496 41.7251 105.707 40.3555 105.918C41.8339 107.816 43.3091 109.717 44.7875 111.614Z" fill="#603814"/>
<path d="M43.2038 112.88L38.7718 106.867L34.3398 113.514C35.6998 113.626 37.2998 113.661 39.0886 113.514C40.6342 113.389 42.0134 113.152 43.2038 112.88Z" fill="#603814"/>
<path d="M32.6203 112.733L37.1867 106.23C35.8811 106.41 34.3931 106.534 32.7547 106.547C30.9147 106.56 29.2539 106.426 27.8203 106.23C29.4203 108.397 31.0171 110.566 32.6171 112.733H32.6203Z" fill="#603814"/>
<path d="M31.1318 113.512L25.567 106.865L19.6406 112.734C21.247 113.073 23.103 113.361 25.167 113.512C27.3878 113.672 29.3974 113.636 31.135 113.512H31.1318Z" fill="#603814"/>
<path d="M18.4531 111.614L23.3011 106.234C21.9187 106.1 20.4212 105.898 18.834 105.601C17.3523 105.322 15.9796 104.999 14.7188 104.65C15.9635 106.97 17.2083 109.294 18.4531 111.614Z" fill="#603814"/>
<path d="M16.1888 112.248L12.5952 104.654L10.2656 110.891C11.184 111.141 12.1408 111.384 13.1328 111.614C14.1824 111.854 15.2032 112.065 16.1856 112.248H16.1888Z" fill="#603814"/>
<path d="M62.9856 48.699V51.9854C62.9856 52.0622 62.944 52.1326 62.8736 52.1678C61.6608 52.779 50.4768 58.0686 29.5936 57.1758C8.9888 56.2926 1.1136 52.7566 0.112002 52.267C0.041602 52.2318 0 52.1614 0 52.0846V48.6862C0 48.5486 0.131202 48.4526 0.262402 48.4942C12.7328 52.2798 23.3152 53.2302 30.5408 53.3806C43.3792 53.6494 52.32 51.5374 54.2496 51.067C57.7216 50.219 60.6016 49.275 62.7136 48.5134C62.8448 48.4654 62.9856 48.5646 62.9856 48.7054V48.699Z" fill="#603814"/>
<path d="M29.7541 25.3644C29.7541 27.8124 27.7701 29.7964 25.3221 29.7964C22.8741 29.7964 20.8901 27.8124 20.8901 25.3644C20.8901 24.8876 20.9669 24.4268 21.1045 23.998C20.9477 23.934 20.7973 23.8508 20.6597 23.7388L4.38767 10.7212C3.63887 10.1196 3.51406 9.02519 4.11566 8.27319C4.46126 7.84119 4.96686 7.61719 5.47566 7.61719C5.85966 7.61719 6.24046 7.74519 6.56046 8.00119L22.8325 21.0188C22.9925 21.1468 23.1237 21.2972 23.2229 21.4604C23.8501 21.1244 24.5605 20.9324 25.3221 20.9324C27.7701 20.9324 29.7541 22.9164 29.7541 25.3644Z" fill="#603814"/>
<path d="M42.0134 21.5433C39.6358 20.9641 38.1766 18.5673 38.7558 16.1897C39.335 13.8121 41.7317 12.3529 44.1093 12.9321C44.5733 13.0441 45.0022 13.2265 45.3862 13.4633C45.4854 13.3257 45.6038 13.2009 45.7446 13.0921L62.2438 0.362509C63.0054 -0.223091 64.0998 -0.08549 64.6854 0.67611C65.0214 1.11451 65.1205 1.65851 64.9989 2.15451C64.9093 2.52571 64.6949 2.86811 64.3685 3.11771L47.8693 15.8473C47.7093 15.9753 47.5301 16.0649 47.3477 16.1193C47.5269 16.8073 47.543 17.5465 47.3638 18.2825C46.7846 20.6601 44.3877 22.1193 42.0101 21.5401L42.0134 21.5433Z" fill="#603814"/>
</svg>
