<svg width="16" height="16" viewBox="0 0 16 16" fill="none" xmlns="http://www.w3.org/2000/svg">
<path d="M13.9406 7.41288C13.9406 10.6729 11.5739 13.7262 8.34056 14.6195C8.12056 14.6795 7.88054 14.6795 7.66054 14.6195C4.42721 13.7262 2.06055 10.6729 2.06055 7.41288V4.4862C2.06055 3.93953 2.47389 3.31954 2.98722 3.11287L6.70054 1.59289C7.53387 1.25289 8.47388 1.25289 9.30721 1.59289L13.0205 3.11287C13.5272 3.31954 13.9472 3.93953 13.9472 4.4862L13.9406 7.41288Z" stroke="#292D32" stroke-width="1.5" stroke-linecap="round" stroke-linejoin="round"/>
<path d="M8.00033 8.33268C8.73671 8.33268 9.33366 7.73573 9.33366 6.99935C9.33366 6.26297 8.73671 5.66602 8.00033 5.66602C7.26395 5.66602 6.66699 6.26297 6.66699 6.99935C6.66699 7.73573 7.26395 8.33268 8.00033 8.33268Z" stroke="#292D32" stroke-width="1.5" stroke-miterlimit="10" stroke-linecap="round" stroke-linejoin="round"/>
<path d="M8 8.33203V10.332" stroke="#292D32" stroke-width="1.5" stroke-miterlimit="10" stroke-linecap="round" stroke-linejoin="round"/>
</svg>
