<svg width="129" height="71" viewBox="0 0 129 71" fill="none" xmlns="http://www.w3.org/2000/svg">
<path d="M89.1506 25.6336C71.2605 21.108 53.4531 20.5816 35.7366 26.6423C33.3691 27.4526 32.3493 28.4173 32.4045 31.1073C32.4596 33.7366 32.4899 36.818 32.5064 40.1033C32.738 39.7009 32.9722 39.2958 33.212 38.8824C33.8707 40.0179 34.4881 41.079 35.1386 42.2035H32.5147V43.1185C38.8566 43.1185 45.1957 43.1213 51.5376 43.1213C66.7074 43.1213 81.8799 43.1185 97.0497 43.1185C97.0497 42.7933 97.0525 42.4736 97.0497 42.1539H95.3437C95.9252 41.1534 96.4765 40.1998 97.0525 39.2076V35.9498C97.0553 27.6786 97.0635 27.6373 89.1506 25.6336ZM35.2543 42.2145C35.9075 41.0845 36.5221 40.0234 37.1864 38.8768C37.8478 40.0151 38.468 41.0845 39.1267 42.2145H35.2543ZM39.2617 42.198C39.9149 41.0735 40.5351 40.0041 41.1993 38.8603C41.858 39.9958 42.4754 41.0625 43.1314 42.198H39.2617ZM43.407 42.2669C44.0519 41.1562 44.6665 40.0978 45.328 38.954C45.984 40.0785 46.6013 41.1424 47.2573 42.2669H43.407ZM47.4034 42.2834C48.0511 41.1617 48.6684 40.0895 49.3382 38.9347C49.9942 40.0647 50.6143 41.1314 51.284 42.2834H47.4034ZM51.3722 42.2862C52.0254 41.1562 52.6511 40.073 53.3125 38.9264C53.9713 40.0565 54.5942 41.1286 55.2639 42.2862H51.3722ZM55.3879 42.2476C56.0411 41.1203 56.664 40.0482 57.3255 38.9127C57.9814 40.0454 58.6043 41.1176 59.2631 42.2476H55.3879ZM59.3898 42.2586C60.043 41.1314 60.6687 40.0537 61.3357 38.9016C61.9971 40.0372 62.6173 41.1093 63.287 42.2586H59.3898ZM63.4166 42.2063C64.0698 41.0845 64.6871 40.0261 65.3459 38.8879C66.0018 40.0179 66.6247 41.0845 67.2779 42.2063H63.4166ZM67.3799 42.2311C68.0359 41.0983 68.6532 40.0289 69.323 38.8741C69.9872 40.0206 70.6101 41.0983 71.2688 42.2311H67.3799ZM71.4039 42.1897C72.0405 41.0873 72.6579 40.0179 73.3332 38.852C73.9946 39.9986 74.6037 41.0542 75.2597 42.1897H71.4039ZM75.3286 42.2311C75.9735 41.1121 76.5937 40.0372 77.2579 38.8851C77.9249 40.0372 78.545 41.1066 79.1955 42.2311H75.3286ZM79.3333 42.2035C79.9975 41.0625 80.6121 40.0041 81.2681 38.8768C81.9323 40.0151 82.5497 41.0817 83.2029 42.2035H79.3333ZM83.3021 42.209C83.9581 41.0818 84.581 40.0096 85.2452 38.8658C85.9039 39.9986 86.5268 41.0735 87.1883 42.209H83.3021ZM87.3151 42.1952C87.9655 41.0707 88.5856 40.0013 89.2526 38.8465C89.9196 39.9958 90.5397 41.0652 91.1957 42.1952H87.3151ZM91.3473 42.1566C91.9784 41.0625 92.5986 39.9876 93.2656 38.8327C93.9298 39.9765 94.5444 41.0404 95.1921 42.1566H91.3473ZM32.5175 43.8434C32.5202 45.2077 32.5202 46.5885 32.5202 47.9693C33.4325 49.5624 34.3475 51.1554 35.2626 52.7485C35.4886 53.1426 35.6016 53.1316 35.8441 52.7127C37.4647 49.929 39.0826 47.1425 40.7004 44.3588C40.7914 44.2017 40.8768 44.0446 40.9871 43.8434H32.5175ZM41.1552 43.8517C41.2158 43.984 41.2544 44.0942 41.3095 44.1934C42.9384 47.035 44.5646 49.8766 46.1962 52.7154C46.458 53.1757 46.6206 53.1674 46.8962 52.6934C47.9932 50.8137 49.0874 48.9312 50.1816 47.0488C50.7907 46.0015 51.3998 44.9541 52.0392 43.8517H41.1552ZM52.2128 43.8434C52.2762 43.9867 52.3121 44.0942 52.3699 44.1934C53.9961 47.0295 55.6222 49.8683 57.2511 52.7016C57.5267 53.184 57.6865 53.1757 57.9787 52.6686C59.6158 49.8573 61.253 47.046 62.8874 44.232C62.9535 44.119 63.0004 43.9978 63.0748 43.8434H52.2128ZM63.2567 43.8489C63.3421 44.0198 63.4055 44.1549 63.4799 44.2844C65.073 47.0653 66.6688 49.8435 68.2618 52.6245C68.5953 53.2033 68.7221 53.2005 69.0666 52.6024L73.8706 44.334C73.9533 44.1907 74.0249 44.0418 74.1269 43.8489H63.2567ZM74.3336 43.8489C74.397 43.995 74.4356 44.1025 74.4907 44.2017C76.1169 47.0405 77.7457 49.8821 79.3746 52.7182C79.6282 53.1619 79.7053 53.1564 79.9754 52.6934C81.6209 49.8656 83.2663 47.0378 84.9089 44.2072C84.9696 44.0997 85.0082 43.9812 85.0688 43.8489H74.3336ZM85.281 43.8489C85.3279 43.9564 85.3499 44.0336 85.3913 44.1025C87.0422 46.9854 88.6931 49.8711 90.3523 52.7513C90.5921 53.1702 90.752 53.1536 91.0248 52.6879C92.5931 49.9951 94.1613 47.2996 95.7268 44.6041C95.8619 44.3726 95.9886 44.1356 96.1485 43.8489H85.281ZM97.0415 57.9493C93.6707 57.9548 90.3 57.9576 86.9292 57.9576C68.7883 57.9576 50.6446 57.9576 32.5009 57.9548V58.7982H35.7532C35.1193 59.8952 34.4991 60.9673 33.8321 62.1249C33.3746 61.3339 32.9391 60.5814 32.4982 59.8235C32.4954 61.6839 32.4927 63.4341 32.4927 65.0188V70.1728C43.5365 69.3405 54.1862 67.8687 64.8249 67.921C75.4664 67.9734 86.1024 69.5499 96.8789 70.4705C96.9092 70.159 97.0304 69.4976 97.0304 68.8388C97.036 66.4272 97.0387 63.6022 97.0415 60.5842C96.6804 59.9613 96.3249 59.3495 95.9583 58.7183H97.0415C97.0442 58.462 97.0442 58.2057 97.0415 57.9493ZM37.8451 62.1111C37.1781 60.9618 36.558 59.8924 35.902 58.7624H39.7826C39.1322 59.8841 38.5121 60.9563 37.8451 62.1111ZM41.8525 62.0918C41.1938 60.959 40.5709 59.8841 39.9122 58.7486H43.7956C43.1396 59.8731 42.5167 60.948 41.8525 62.0918ZM45.8296 62.0808C45.1654 60.9397 44.548 59.8731 43.8976 58.7541H47.7644C47.1002 59.8952 46.4856 60.9535 45.8296 62.0808ZM49.8398 62.0725C49.1728 60.9205 48.5527 59.8511 47.9022 58.7266H51.7691C51.1242 59.8456 50.504 60.9205 49.8398 62.0725ZM53.7646 62.1028C53.1031 60.959 52.494 59.9034 51.838 58.7679H55.6938C55.0572 59.8676 54.4398 60.937 53.7646 62.1028ZM57.7747 62.0835C57.1105 60.937 56.4876 59.8593 55.8289 58.7266H59.7178C59.0619 59.8593 58.4445 60.9287 57.7747 62.0835ZM61.7518 62.067C61.0959 60.9397 60.473 59.8731 59.8198 58.7486H63.6811C63.0279 59.8731 62.4133 60.9315 61.7518 62.067ZM65.762 62.056C65.1006 60.9177 64.4804 59.8483 63.8107 58.6962H67.7079C67.0547 59.8263 66.429 60.9039 65.762 62.056ZM69.775 62.045C69.1163 60.9122 68.4934 59.84 67.8374 58.7073H71.7098C71.0566 59.8345 70.4337 60.9094 69.775 62.045ZM73.7852 62.0312C73.1264 60.8984 72.5036 59.8263 71.8338 58.6714H75.7255C75.0723 59.8015 74.4466 60.8819 73.7852 62.0312ZM77.7595 62.0229C77.1036 60.8929 76.4834 59.8263 75.8137 58.6742H79.6943C79.0466 59.7959 78.4293 60.8653 77.7595 62.0229ZM81.7697 62.0009C81.1137 60.8764 80.4964 59.8152 79.8404 58.688H83.6907C83.0458 59.8015 82.4312 60.8598 81.7697 62.0009ZM85.9011 62.0973C85.2397 60.959 84.6223 59.8924 83.9663 58.7569H87.836C87.1828 59.8841 86.5626 60.9535 85.9011 62.0973ZM89.9113 62.0808C89.2499 60.9425 88.6297 59.8731 87.9738 58.7431H91.8434C91.1902 59.8704 90.5756 60.9315 89.9113 62.0808ZM93.8857 62.0725C93.227 60.9397 92.6096 59.8759 91.9592 58.7541H95.8067C95.1645 59.8649 94.5444 60.937 93.8857 62.0725ZM32.5119 53.7242C32.5092 54.6282 32.5092 55.5212 32.5064 56.4004H97.0442C97.0442 55.5129 97.0442 54.6199 97.0442 53.7242H32.5119ZM85.281 43.8489C85.3279 43.9564 85.3499 44.0336 85.3913 44.1025C87.0422 46.9854 88.6931 49.8711 90.3523 52.7513C90.5921 53.1702 90.752 53.1536 91.0248 52.6879C92.5931 49.9951 94.1613 47.2996 95.7268 44.6041C95.8619 44.3726 95.9886 44.1356 96.1485 43.8489H85.281ZM74.3336 43.8489C74.397 43.995 74.4356 44.1025 74.4907 44.2017C76.1169 47.0405 77.7457 49.8821 79.3746 52.7182C79.6282 53.1619 79.7053 53.1564 79.9754 52.6934C81.6209 49.8656 83.2663 47.0378 84.9089 44.2072C84.9696 44.0997 85.0082 43.9812 85.0688 43.8489H74.3336ZM63.2567 43.8489C63.3421 44.0198 63.4055 44.1549 63.4799 44.2844C65.073 47.0653 66.6688 49.8435 68.2618 52.6245C68.5953 53.2033 68.7221 53.2005 69.0666 52.6024L73.8706 44.334C73.9533 44.1907 74.0249 44.0418 74.1269 43.8489H63.2567ZM52.2128 43.8434C52.2762 43.9867 52.3121 44.0942 52.3699 44.1934C53.9961 47.0295 55.6222 49.8683 57.2511 52.7016C57.5267 53.184 57.6865 53.1757 57.9787 52.6686C59.6158 49.8573 61.253 47.046 62.8874 44.232C62.9535 44.119 63.0004 43.9978 63.0748 43.8434H52.2128ZM41.1552 43.8517C41.2158 43.984 41.2544 44.0942 41.3095 44.1934C42.9384 47.035 44.5646 49.8766 46.1962 52.7154C46.458 53.1757 46.6206 53.1674 46.8962 52.6934C47.9932 50.8137 49.0874 48.9312 50.1816 47.0488C50.7907 46.0015 51.3998 44.9541 52.0392 43.8517H41.1552ZM32.5175 43.8434C32.5202 45.2077 32.5202 46.5885 32.5202 47.9693C33.4325 49.5624 34.3475 51.1554 35.2626 52.7485C35.4886 53.1426 35.6016 53.1316 35.8441 52.7127C37.4647 49.929 39.0826 47.1425 40.7004 44.3588C40.7914 44.2017 40.8768 44.0446 40.9871 43.8434H32.5175Z" fill="#603814"/>
<path d="M122.041 28.1775C122.032 31.1128 121.919 34.0563 122.071 36.9834C122.129 38.1024 122.901 39.169 123.154 40.3018C123.427 41.52 124.053 43.3859 123.504 43.9233C121.798 45.5935 122.548 47.2197 122.906 48.9147C123.416 51.3318 124.009 53.7297 124.634 56.439H117.603C118.028 54.1872 118.356 51.9905 118.868 49.838C119.381 47.6882 120.528 45.6073 118.284 43.6339C117.857 43.2591 117.973 41.8479 118.29 41.1093C120.161 36.7629 120.475 34.5635 119.577 29.1725C112.587 31.7991 105.666 34.4009 98.1284 37.2314C98.1284 34.3623 98.3544 31.9121 98.0319 29.5363C97.8721 28.3594 96.9212 26.6203 95.9566 26.3171C75.7788 19.9807 55.5129 18.4125 35.0596 25.3028C31.8404 26.386 30.3439 27.8385 30.8014 31.2699C31.0357 33.0255 30.8427 34.8391 30.8427 37.27C20.7497 33.439 11.0371 29.7512 0.86142 25.8871C-0.268598 25.4572 -0.296159 23.8448 0.833859 23.4094C0.842127 23.4066 0.850395 23.4039 0.855908 23.4011C21.0005 15.728 41.1342 8.01356 61.3422 0.505834C63.2274 -0.194226 65.8292 -0.15564 67.7254 0.547176C84.1355 6.61069 100.427 12.9856 116.837 19.0464C119.502 20.0303 120.387 21.3395 120.026 23.9441C119.888 24.9418 120.059 25.9781 119.996 26.9896C119.877 28.872 120.971 28.624 122.151 28.2822L122.046 28.1747L122.041 28.1775Z" fill="#603814"/>
<path d="M122.147 28.2871V21.168C124.098 21.9094 125.922 22.6039 127.992 23.3922C129.147 23.8332 129.147 25.4675 127.992 25.9058C125.812 26.7354 123.927 27.452 122.039 28.1741C122.039 28.1768 122.147 28.2871 122.147 28.2871Z" fill="#603814"/>
</svg>
