<svg width="115" height="73" viewBox="0 0 115 73" fill="none" xmlns="http://www.w3.org/2000/svg">
<path d="M69.9884 67.6206C66.7011 72.6089 60.0837 73.1093 52.5081 69.1139C54.2676 66.9472 55.1647 64.5941 53.7832 61.8604C52.4922 59.305 50.3201 58.203 47.5225 57.9422C47.5518 53.3452 45.3957 50.6035 40.7561 49.8954C40.844 46.459 39.6621 43.7066 36.3375 42.405C32.8371 41.0315 30.5826 43.0066 28.8258 45.8255C24.5322 40.2808 22.6742 39.8203 17.7312 42.9986C16.3258 41.3057 14.8724 39.6207 13.5175 37.8639C13.2646 37.5365 13.1928 36.7912 13.3924 36.4372C18.1039 27.9911 22.8632 19.5717 27.4416 11.4531C31.6606 12.7281 35.656 13.934 39.7899 15.1824C38.3338 17.3358 36.7474 19.5105 35.3552 21.8024C34.4555 23.285 33.5479 24.8715 33.1566 26.5324C32.3527 29.9636 34.2532 31.763 37.8068 31.385C43.0134 30.8313 46.8145 27.9858 49.9954 24.0809C52.3617 21.1768 54.9943 20.6045 58.2471 22.2522C70.1961 28.3052 81.0723 35.9713 91.4349 44.4067C92.9495 45.6391 94.291 47.0047 93.8572 49.1953C93.213 52.4401 89.7739 53.7391 86.6436 51.8865C81.4024 48.7881 76.1985 45.6338 70.976 42.5035C70.5714 42.2613 70.1801 41.8992 69.7436 41.8274C69.3043 41.7528 68.8146 41.9685 68.3488 42.059C68.4978 42.5115 68.5085 43.1636 68.8199 43.3846C70.0896 44.2763 71.4498 45.0402 72.786 45.8388C76.4993 48.0641 80.2152 50.284 83.9285 52.5093C86.5238 54.0639 86.5078 57.5269 83.7821 58.9031C82.0785 59.7629 80.2312 60.0796 78.3653 58.967C74.4177 56.6086 70.417 54.338 66.4349 52.0355C65.9078 51.7321 65.4021 51.3222 64.8325 51.1837C64.4066 51.0799 63.8955 51.3328 63.4217 51.4286C63.5814 51.8758 63.608 52.5093 63.9248 52.7383C64.9043 53.449 65.993 54.0133 67.0471 54.6255C70.0869 56.393 73.1427 58.1365 76.1692 59.9252C77.0956 60.4736 78.5063 60.7131 78.1257 62.3289C77.745 63.9473 77.2659 65.7121 75.3707 65.957C73.7656 66.1646 71.9316 66.1859 70.4702 65.6056C67.087 64.2614 63.8875 62.462 60.5655 60.9527C59.9613 60.6785 59.1255 60.9074 58.3988 60.9048C58.8274 61.4771 59.1335 62.2863 59.7031 62.5791C63.049 64.3013 66.4562 65.9064 69.9911 67.6206H69.9884Z" fill="#FDAF40"/>
<path d="M34.7599 27.292C35.1406 26.3657 35.3801 25.3409 35.9285 24.529C38.6915 20.4324 41.4332 16.3146 44.4197 12.3857C45.181 11.3848 46.7409 10.7194 48.0452 10.4479C57.0768 8.56861 66.1217 8.14006 75.1533 10.5677C78.635 11.502 82.13 12.2233 85.7315 10.9829C86.1361 10.8445 87.0491 11.297 87.294 11.7256C91.8378 19.6552 96.3283 27.6194 100.779 35.6023C101 36.0015 100.989 36.8799 100.712 37.1514C98.9262 38.8976 97.0523 40.5533 95.173 42.2036C93.9007 43.3216 92.812 43.106 91.4678 42.0093C81.0067 33.4675 69.9122 25.8759 57.7902 19.8548C55.4664 18.6996 51.0025 19.9293 49.1898 21.8299C47.023 24.1031 44.7019 26.3204 42.1093 28.0613C40.6559 29.0382 38.5424 29.134 36.6924 29.3869C35.3828 29.5679 34.6694 28.7853 34.7573 27.2973L34.7599 27.292Z" fill="#FDAF40"/>
<path d="M17.569 1.44021C16.5255 3.48716 15.3383 5.45959 14.2097 7.46395C9.69257 15.4814 5.20205 23.5095 0.636991 31.4977C-0.188179 32.9404 -0.323934 33.9732 0.905836 34.8569L20.2574 0.580437C19.0649 -0.127613 18.2717 0.0613769 17.569 1.44021ZM26.8694 4.61312C26.2412 4.25111 25.613 3.88378 24.9875 3.51378C25.0248 3.57767 25.0647 3.64421 25.102 3.7081C23.787 3.72407 22.5519 3.74004 21.2396 3.75601C21.6016 3.11184 21.9503 2.4943 22.2964 1.87675C21.9157 1.63719 21.5351 1.39762 21.1545 1.15539L1.82683 35.3893C2.23942 35.6076 2.64402 35.8338 3.04596 36.0707C3.18171 35.8259 3.32279 35.5783 3.46386 35.3281C3.7753 35.8578 4.07343 36.3689 4.37155 36.8746C5.34312 37.4789 6.30405 38.0991 7.28094 38.69C7.73878 38.9668 8.22324 39.2011 8.92596 39.5791C9.30394 39.1744 9.7884 38.8231 10.0546 38.3493C15.9239 27.9867 21.756 17.6056 27.6307 7.24568C28.3281 6.01591 28.038 5.28923 26.8694 4.61312ZM3.50645 35.1923C4.15062 34.0504 4.74953 32.9857 5.40435 31.8198C6.06448 32.9324 6.698 33.9998 7.37677 35.1444C6.04319 35.1631 4.80809 35.1764 3.50645 35.1923ZM5.47622 31.7799C6.12837 30.622 6.7326 29.5492 7.36878 28.418C8.01561 29.5146 8.64647 30.5794 9.33056 31.7373C8.00763 31.7532 6.7885 31.7666 5.47622 31.7799ZM7.39806 28.2795C8.04489 27.1323 8.64381 26.0649 9.30927 24.8857C9.97472 26.017 10.6029 27.0791 11.2817 28.2316C9.95609 28.2476 8.71035 28.2636 7.39806 28.2795ZM9.37847 24.8112C10.0147 23.6799 10.6269 22.5939 11.2737 21.4439C11.9338 22.5646 12.554 23.6213 13.2222 24.7553C11.9152 24.7739 10.6801 24.7925 9.37847 24.8112ZM11.2923 21.3029C11.9445 20.145 12.5487 19.0722 13.2062 17.9064C13.869 19.0296 14.5025 20.105 15.1786 21.2523C13.8637 21.2683 12.6233 21.2869 11.2923 21.3029ZM13.2781 17.7999C13.9169 16.6606 14.5291 15.5746 15.1786 14.4193C15.8414 15.5453 16.4723 16.6127 17.1377 17.7466C15.8281 17.7653 14.585 17.7812 13.2781 17.7999ZM15.2079 14.2942C15.8601 13.1363 16.4643 12.0636 17.1191 10.9004C17.7846 12.0237 18.4207 13.0991 19.0969 14.2437C17.7872 14.2596 16.5468 14.2756 15.2079 14.2942ZM17.1644 10.8232C17.8192 9.66263 18.4207 8.58991 19.0702 7.44C19.7304 8.55531 20.3612 9.62004 21.04 10.77C19.733 10.7886 18.4979 10.8046 17.1644 10.8232ZM19.1554 7.32021C19.7943 6.18627 20.3985 5.11089 21.0453 3.96097C21.6975 5.07096 22.3203 6.12505 22.9911 7.26431C21.6895 7.28295 20.4571 7.30158 19.1554 7.32021Z" fill="#FDAF40"/>
<path d="M93.6147 1.08869C93.2287 1.32293 92.8454 1.55451 92.4594 1.78343C92.8241 2.43292 93.1888 3.07975 93.5694 3.75586C92.2545 3.73989 91.022 3.72392 89.7044 3.70794C89.7789 3.58284 89.8535 3.45773 89.9253 3.33262C89.0283 3.89161 88.1392 4.4639 87.2635 5.06016C86.8749 5.32634 86.7657 6.52683 87.0053 7.08848C87.6441 8.57113 88.5412 9.94463 89.3397 11.3581C94.328 20.2007 99.3349 29.03 104.281 37.894C105.055 39.2834 105.75 39.8105 107.257 38.783C108.324 38.0537 109.423 37.3669 110.536 36.7014H110.539C110.802 36.2516 111.068 35.7964 111.345 35.3279C111.473 35.5542 111.598 35.7778 111.723 35.9987L112.929 35.296L93.6147 1.08869ZM93.7611 3.96082C94.4105 5.11073 95.0148 6.18612 95.6536 7.32006C94.3493 7.30143 93.1196 7.28279 91.8179 7.26416C92.4887 6.12489 93.1089 5.07081 93.7611 3.96082ZM95.7388 7.43984C96.3856 8.58976 96.9899 9.66248 97.642 10.823C96.3111 10.8044 95.076 10.7884 93.7664 10.7698C94.4478 9.61989 95.0787 8.55515 95.7388 7.43984ZM97.6899 10.9002C98.3447 12.0635 98.949 13.1362 99.5985 14.2941C98.2622 14.2754 97.0218 14.2595 95.7122 14.2435C96.3856 13.0989 97.0245 12.0235 97.6899 10.9002ZM99.6278 14.4192C100.277 15.5744 100.889 16.6605 101.531 17.7997C100.221 17.7811 98.9809 17.7651 97.6686 17.7465C98.3368 16.6125 98.965 15.5451 99.6278 14.4192ZM101.603 17.9062C102.26 19.0721 102.862 20.1448 103.514 21.3027C102.183 21.2867 100.945 21.2681 99.6278 21.2521C100.307 20.1049 100.94 19.0295 101.603 17.9062ZM103.533 21.4438C104.182 22.5937 104.792 23.6797 105.428 24.811C104.129 24.7924 102.894 24.7737 101.587 24.7551C102.252 23.6212 102.875 22.5644 103.533 21.4438ZM103.525 28.2315C104.206 27.0789 104.832 26.0168 105.5 24.8855C106.163 26.0647 106.764 27.1321 107.408 28.2794C106.096 28.2634 104.853 28.2474 103.525 28.2315ZM105.476 31.7371C106.163 30.5792 106.791 29.5145 107.44 28.4178C108.076 29.5491 108.681 30.6218 109.333 31.7797C108.021 31.7664 106.799 31.7531 105.476 31.7371ZM107.432 35.1443C108.111 33.9997 108.745 32.9323 109.402 31.8196C110.057 32.9855 110.658 34.0503 111.3 35.1922C109.998 35.1762 108.763 35.1629 107.432 35.1443ZM114.35 32.187C108.524 21.8803 102.723 11.555 96.8994 1.24574C96.6252 0.76395 96.178 0.383305 95.8479 0C95.3448 0.17302 95.0654 0.218273 94.8418 0.351365C94.738 0.415249 94.6315 0.479131 94.5277 0.540353L113.845 34.7556C114.859 34.0875 114.984 33.3076 114.35 32.187Z" fill="#FDAF40"/>
<path d="M23.5674 56.9123C23.7191 56.5929 23.98 55.7464 24.4697 55.0623C26.711 51.9267 28.9975 48.8203 31.3027 45.7326C32.7507 43.7921 34.6912 43.4354 36.5864 44.6785C38.644 46.0281 39.4346 48.5994 38.1276 50.4787C35.6974 53.9763 33.1314 57.3808 30.5787 60.7933C29.5592 62.1561 28.1697 62.425 26.5939 61.8314C24.7253 61.126 23.5274 59.4065 23.5674 56.9123Z" fill="#FDAF40"/>
<path d="M45.52 56.9831C45.331 57.4223 45.1101 58.2927 44.6283 58.9821C42.93 61.4204 41.1679 63.8134 39.3871 66.1931C37.9551 68.1043 36.1903 68.4397 34.2817 67.2525C32.2641 65.9961 31.2872 63.47 32.4664 61.6759C34.4308 58.6893 36.5124 55.7507 38.8601 53.0675C39.5122 52.3222 41.3835 52.1226 42.4962 52.418C44.3834 52.9185 45.3789 54.5262 45.52 56.9858V56.9831Z" fill="#FDAF40"/>
<path d="M52.5353 65.0346C52.3517 65.4339 52.1148 66.2218 51.6702 66.8686C50.6028 68.4258 49.4662 69.9377 48.3057 71.4283C46.9082 73.2224 45.029 73.4806 43.1524 72.2056C41.1586 70.8534 40.4533 68.3645 41.6431 66.5678C42.6839 64.9947 43.8604 63.5094 44.9385 61.9575C46.0032 60.4269 47.3048 59.5725 49.232 60.2167C51.0953 60.8395 52.5833 62.8279 52.5353 65.0319V65.0346Z" fill="#FDAF40"/>
<path d="M26.6847 47.5193C26.6847 49.127 23.6901 53.4365 22.1596 53.8944C20.3176 54.4454 18.827 53.7054 17.685 52.3026C16.5245 50.8785 16.2077 49.2521 17.1899 47.5991C17.7729 46.6169 18.5448 45.7491 19.2023 44.8095C20.291 43.2603 21.6565 42.5443 23.5517 43.2284C25.4257 43.9045 26.6847 45.6134 26.6847 47.5193Z" fill="#FDAF40"/>
</svg>
